<?xml version="1.0" encoding="utf-8"?>
<!-- Generator: Adobe Illustrator 27.7.0, SVG Export Plug-In . SVG Version: 6.00 Build 0)  -->
<svg version="1.1" id="Capa_1" xmlns="http://www.w3.org/2000/svg" xmlns:xlink="http://www.w3.org/1999/xlink" x="0px" y="0px"
	 viewBox="0 0 100 100" style="enable-background:new 0 0 100 100;" xml:space="preserve">
<style type="text/css">
	.st0{fill:#007AD9;}
	.st1{fill:#FFFFFF;}
	.st2{opacity:0.57;fill:#10668C;}
</style>
<path class="st0" d="M15,14.9l5.5,62c0.2,2.6,2,4.7,4.5,5.5l22.2,6.3c1.9,0.5,3.9,0.5,5.7,0L75,82.4c2.5-0.7,4.3-2.9,4.5-5.5l5.5-62
	c0.2-2.4-1.7-4.5-4.1-4.5H19.1C16.7,10.4,14.8,12.5,15,14.9z"/>
<path class="st0" d="M50,16.7v66.5l20.6-5.9c1.7-0.5,2.9-1.9,3-3.6l4.8-54.7c0.1-1.2-0.9-2.3-2.1-2.3L50,16.7z"/>
<polygon class="st1" points="69,27.1 67.9,43.8 66.5,67.7 50,73.1 33.5,67.7 32.9,56.2 41.2,56.2 41.5,61.5 50,64.4 58.5,61.5 
	59.2,52.1 40.8,52.1 40.4,43.8 59.6,43.8 60.2,35.4 31.5,35.4 30.8,27.1 "/>
<path class="st2" d="M28.6,25l0.2,2.2l0.6,8.3l0.1,1.9H58l-0.3,4.2H38.2l0.1,2.2l0.4,8.3l0.1,2h-8.1l0.1,2.2l0.6,11.5l0.1,1.4
	l1.4,0.5l16.5,5.4l0.7,0.2l0.7-0.2l16.5-5.4l1.3-0.4l0.1-1.4l1.5-24l1-16.7l0.1-2.2H28.6z M67.9,43.8l-1.5,24L50,73.1l-16.5-5.4
	l-0.6-11.5h8.3l0.2,5.2l8.5,2.9l8.5-2.9l0.6-9.4H40.8l-0.4-8.3h19.2l0.6-8.3H31.5l-0.6-8.3H69L67.9,43.8z M43.2,54.2h13.7l-0.4,5.8
	L50,62.2L43.5,60l-0.1-3.8L43.2,54.2z"/>
</svg>
