<?xml version="1.0" encoding="UTF-8"?>
<svg xmlns="http://www.w3.org/2000/svg" viewBox="0 0 32 32">
  <defs>
    <style>
      .cls-1 { fill: #ffeb66; }
      .cls-2 { fill: #fec604; }
      .cls-3 { fill: #fee330; }
      .cls-4 { fill: #fed541; }
      .cls-5 { fill: #fcc009; }
    </style>
  </defs>
  <g>
    <g>
      <path class="cls-5" d="m32,19.26v4.61c0,4.48-3.81,8.13-8.5,8.13h-15c-4.69,0-8.5-3.65-8.5-8.13v-4.61h32Z"/>
      <path class="cls-3" d="m9.16,1.34C4.87,1.34,1.4,4.66,1.4,8.76v12.05L21.76,1.34h-12.6Z"/>
      <path class="cls-3" d="m32,8.45v14.02c0,4.48-3.81,8.13-8.5,8.13h-14.66l1.4-1.34h12.6c4.29,0,7.76-3.32,7.76-7.42v-12.05l1.4-1.34Z"/>
      <path class="cls-3" d="m23.16,0l-1.4,1.34h-12.6C4.87,1.34,1.4,4.66,1.4,8.76v12.05l-1.4,1.34v-14.02C0,3.64,3.81,0,8.5,0h14.66Z"/>
      <path class="cls-2" d="m21.76,1.34L1.4,20.81v-12.05C1.4,4.66,4.87,1.34,9.16,1.34h12.6Z"/>
      <path class="cls-2" d="m30.6,9.79v12.05c0,4.1-3.47,7.42-7.76,7.42h-12.6L30.6,9.79Z"/>
      <path class="cls-4" d="m30.6,8.76v1.03L10.24,29.26h-1.08c-4.29,0-7.76-3.32-7.76-7.42v-1.03L21.76,1.34h1.08c4.29,0,7.76,3.32,7.76,7.42Z"/>
      <path class="cls-1" d="m10.24,29.26l-1.4,1.34h-.34c-4.69,0-8.5-3.64-8.5-8.13v-.33l1.4-1.34v1.03c0,4.1,3.47,7.42,7.76,7.42h1.08Z"/>
      <path class="cls-1" d="m32,8.13v.33l-1.4,1.34v-1.03c0-4.1-3.47-7.42-7.76-7.42h-1.08l1.4-1.34h.34c4.69,0,8.5,3.64,8.5,8.13Z"/>
    </g>
  </g>
</svg>