<?xml version="1.0" encoding="UTF-8"?>
<svg xmlns="http://www.w3.org/2000/svg" viewBox="0 0 27.8 27.79">
  <defs>
    <style>
      .cls-1 { fill: #fff; }
    </style>
  </defs>
  <g><path class="cls-1" d="m27.8,13.9h0c0,1.38-1.12,2.5-2.5,2.5h-.01c-4.91,0-8.89,3.98-8.89,8.89h0c0,1.38-1.12,2.5-2.5,2.5h0c-1.38,0-2.5-1.12-2.5-2.5h0c0-4.91-3.98-8.89-8.89-8.89h0c-1.38,0-2.5-1.12-2.5-2.5h0c0-1.38,1.12-2.5,2.5-2.5h0c4.91,0,8.89-3.98,8.89-8.89h0c0-1.39,1.12-2.51,2.5-2.51h0c1.38,0,2.5,1.12,2.5,2.5h0c0,4.92,3.98,8.9,8.89,8.9h.01c1.38,0,2.5,1.12,2.5,2.5Z"/></g>
</svg>